<svg width="1000" height="551.73152" xmlns="http://www.w3.org/2000/svg">

 <g>
  <title>background</title>
  <rect fill="none" id="canvas_background" height="553.73152" width="1002" y="-1" x="-1"/>
 </g>
 <g>
  <title>Layer 1</title>
  <path id="svg_2" fill="#2f2e41" d="m123.77227,120.41952c27.49676,-11.6953 61.74442,-4.28528 95.19092,0.85757c0.31124,-6.228 4.08385,-13.80782 0.132,-18.15284c-4.80115,-5.2788 -4.35917,-10.82529 -1.47008,-16.40375c7.38788,-14.265 -3.1969,-29.44375 -13.88428,-42.0647a23.66937,23.66937 0 0 0 -19.75537,-8.29179l-19.7975,1.41411a23.70939,23.70939 0 0 0 -21.05296,16.94614l0,0c-4.72724,6.42917 -7.25736,12.84055 -5.66438,19.21854c-7.08065,4.83882 -8.27029,10.67977 -5.08851,17.2644c2.698,4.14592 2.66928,8.18161 -0.12275,12.1056a55.89079,55.89079 0 0 0 -8.31011,16.5061l-0.17698,0.60062z"/>
  <circle id="svg_10" fill="#6c63ff" r="77.37523" cy="78.37523" cx="779.33457"/>
  <path id="svg_11" fill="#fff" d="m811.39,112.08875l-64.11089,0a4.42582,4.42582 0 0 1 -4.42144,-4.42145l0,-38.68764a4.42616,4.42616 0 0 1 4.42144,-4.42144l64.11089,0a4.42616,4.42616 0 0 1 4.42144,4.42144l0,38.68761a4.42582,4.42582 0 0 1 -4.42144,4.42148zm-64.11091,-43.10906l0,38.68761l64.11415,0l-0.00324,-38.68764l-64.11091,0.00003z"/>
  <path id="svg_12" fill="#fff" d="m799.23105,68.97966l-39.793,0l0,-17.68577c0,-12.80987 8.36792,-22.10721 19.89649,-22.10721s19.89648,9.29734 19.89648,22.10721l0.00003,17.68577zm-35.37153,-4.42144l30.95009,0l0,-13.26433c0,-10.413 -6.36338,-17.68576 -15.475,-17.68576s-15.47505,7.27281 -15.47505,17.68576l-0.00004,13.26433z"/>
  <circle id="svg_13" fill="#fff" r="4.42144" cy="87.21811" cx="779.33457"/>
  <g stroke="null" id="svg_93">
   <path stroke="null" id="svg_33" fill="#2f2e41" d="m607.72935,551.90153q-47.26015,-6.95799 -90.90084,-11.99628l11.50434,-18.71352c-3.87821,-1.15165 -20.9193,9.51644 -20.9193,9.51644l15.10193,-54.4059c-19.50607,1.88896 -29.43157,57.46624 -29.43157,57.46624l-21.79028,-18.90723l10.54764,21.19181c-89.04439,-9.23904 -165.94667,-12.86874 -230.63091,-13.2874l9.84658,-16.01682c-3.87821,-1.15166 -20.9193,9.51644 -20.9193,9.51644l15.10193,-54.4059c-19.50607,1.88896 -29.43157,57.46624 -29.43157,57.46624l-21.79031,-18.90723l11.17163,22.4456c-54.22725,0.66071 -98.44916,3.57013 -132.58212,6.96255c9.96066,-24.97631 43.78879,-48.61755 43.78879,-48.61755c-25.83264,6.34545 -39.38434,17.11686 -46.46616,27.18474c-0.54133,-30.89819 3.10032,-88.16314 30.15611,-151.45503c0,0 -53.40738,97.53206 -46.60398,163.19797l0.81319,11.65854c-45.26624,5.2441 -68.02447,10.8132 -68.02447,10.8132l611.45869,9.29309z"/>
  </g>
  <path id="svg_22" fill="#2f2e41" d="m168.64917,537.11169l0,0a11.57381,11.57381 0 0 1 -9.3632,-1.46873l-21.85854,-2.93814a22.61221,22.61221 0 0 1 -7.741,-29.33451l0,0c9.2568,5.43749 17.37707,4.67891 24.43354,-1.8795c4.98593,10.06738 13.20093,9.45331 21.04657,17.93494a11.57385,11.57385 0 0 1 -6.51737,17.68594z"/>
  <path id="svg_23" fill="#ffb8b8" d="m198.6716,131.76733l-37.28042,-8.94731c6.19168,-12.6739 6.70155,-26.77618 3.728,-41.75406l25.35068,-0.74561c0.79435,18.6254 3.19746,36.02621 8.20174,51.44698z"/>
  <circle id="svg_27" fill="#ffb8b8" r="23.80211" cy="76.09251" cx="175.52496"/>
  <path id="svg_28" fill="#2f2e41" d="m204,73.08928c-23.56616,2.30811 -41.52338,-1.54606 -53,-12.52007l0,-8.8377l51,0l2,21.35777z"/>
  <path id="svg_18" fill="#ffb8b8" d="m266.522,206.32816l-58.9031,31.31559l-0.74561,-26.09629c19.22553,-3.20948 37.51669,-8.7974 54.42941,-17.8946l6.1605,-15.22008a10.31753,10.31753 0 0 1 17.53643,-2.67788l0,0a10.31753,10.31753 0 0 1 -0.90847,14.06885l-17.56916,16.50441z"/>
  <path id="svg_19" fill="#2f2e41" d="m122.59819,387.13282l0,0a11.57378,11.57378 0 0 1 1.46928,-9.36311l12.93931,-19.85777a22.61221,22.61221 0 0 1 29.335,-7.73927l0,0c-5.438,9.25647 -4.67994,17.37679 1.87806,24.43365a117.63085,117.63085 0 0 0 -27.93606,19.04492a11.57386,11.57386 0 0 1 -17.68559,-6.51842z"/>
  <path id="svg_20" fill="#2f2e41" d="m269.20475,361.16849l0,0a22.20314,22.20314 0 0 1 -18.87085,10.77909l-85.96027,0.65122l-3.728,-21.62264l38.026,-11.18413l-32.06116,-24.60507l35.04353,-41.00844l63.65,59.32431a22.20317,22.20317 0 0 1 3.90075,27.66566z"/>
  <path id="svg_21" fill="#2f2e41" d="m150.95266,509.04514l-20.13142,0c-18.07509,-123.89772 -36.47383,-248.14186 17.8946,-294.51529l64.12231,10.43852l-8.20169,54.42938l-35.7892,41.00845l-17.8946,188.63894z"/>
  <path id="svg_24" fill="#6c63ff" d="m208.91752,247.41818c-27.13873,18.49308 -46.31418,0.63272 -60.94729,-26.92346c2.03338,-16.86188 -1.259,-37.04061 -7.35672,-58.96635a40.13762,40.13762 0 0 1 24.50567,-48.40124l0,0l32.06116,13.421c27.22362,22.19038 32.582,46.227 22.36825,71.5784l-10.63107,49.29165z"/>
  <path id="svg_25" fill="#ffb8b8" d="m130.82124,150.40753l-29.82434,15.65778l52.9382,31.31555l7.366,18.16951a9.63673,9.63673 0 0 1 -5.78925,12.73088l0,0a9.63673,9.63673 0 0 1 -12.76159,-8.54442l-0.74489,-12.66307l-67.2838,-22.20366a15.73306,15.73306 0 0 1 -9.87265,-9.61147l0,0a15.733,15.733 0 0 1 5.90262,-18.30258l54.10485,-37.11845l5.96485,30.56993z"/>
  <path id="svg_26" fill="#6c63ff" d="m160.64557,153.38997c-12.43861,-5.4511 -23.74934,0.47044 -38.026,5.21926l-2.23683,-39.51725c14.17612,-7.55568 27.69209,-9.59281 40.26285,-3.728l-0.00002,38.02599z"/>
 </g>
</svg>